<svg version="1.2" xmlns="http://www.w3.org/2000/svg" viewBox="0 0 1549 368" width="1549" height="368">
	<title>download (2)-svg</title>
	<style>
		.s0 { fill: #000000 } 
	</style>
	<path id="Layer" fill-rule="evenodd" class="s0" d="m758.8 171.9h-60.4v190h-67.1v-190h-45v-57.9l-78.4 112.1 95 135.8h-79.5l-173.6-247.9h79.5l41.9 59.8 41.8-59.8h118.3v-15c0-57.3 32.5-98.6 99.1-98.6h41.9v57.8h-34.1c-22.8 0-39.8 7.8-39.8 41.4v14.4h60.4c0 0 0 57.9 0 57.9zm-412.1 179.6l48-68.6h73.4l-55.3 79h-137.5l-29.5-82.1h-142l-30.5 82.1h-73.3l136.9-356.3h76.9l132.9 346zm-124.1-136.4l-47-130.1-48 130.1zm659.5-106.3c73.9 0 129.1 57.8 129.1 129.1 0 71.2-55.2 129.1-129.1 129.1-73.8 0-129.1-57.9-129.1-129.1 0-71.3 55.3-129.1 129.1-129.1zm0 196.2q0 0 0 0 0 0 0 0zm0 0c40.8 0 64.6-32 64.6-67.7 0-35.6-23.8-66.6-64.6-66.6-40.8 0-64.5 31-64.5 66.6 0 35.7 23.7 67.7 64.5 67.7zm270.5 62c-71.4 0-129.1-57.7-129.1-129.1 0-71.4 57.7-129.1 129.1-129.1 71.4 0 129.1 57.7 129.1 129.1 0 71.4-57.7 129.1-129.1 129.1zm64.6-129.1c0-37.2-28.9-67.2-64.6-67.2-35.7 0-64.5 30-64.5 67.2 0 37.1 28.8 67.1 64.5 67.1 35.7 0 64.6-30 64.6-67.1zm331.4-237.6v361.5h-64.5l-2.6-27.4c-10.9 18.1-35.7 32.6-68.2 32.6-69.7 0-119.3-54.8-119.3-130.7 0-72.8 48-127.5 117.8-127.5 42.3 0 62.4 16.5 69.7 30.9v-139.4zm-63.6 233.9c0-46.4-27.8-70.2-61.9-70.2-36.2 0-64.1 25.8-64.1 71.3 0 48 26.4 74.3 64.1 74.3 34.1 0 61.9-26.3 61.9-75.4z"/>
</svg>