<svg width="1365" height="1365" viewBox="0 0 1365 1365" fill="none" xmlns="http://www.w3.org/2000/svg">
<path fill-rule="evenodd" clip-rule="evenodd" d="M673.237 127.958L1086.33 1164.16C1231.38 1044.13 1313.92 869.599 1313.92 680.302C1313.92 333.26 1030.66 50.9183 682.5 50.9183C334.337 50.9183 51.0828 333.26 51.0828 680.302C51.0828 862.385 128.609 1032.49 264.932 1152.18L673.237 127.958ZM1063.82 1245.56L673.237 265.844L286.728 1235.41L259.807 1214.21C94.7073 1084.17 0 889.559 0 680.302C0 305.17 306.173 0 682.5 0C1058.84 0 1365 305.17 1365 680.302C1365 897.027 1264.95 1095.8 1090.51 1225.67L1063.82 1245.56Z" fill="white"/>
<path fill-rule="evenodd" clip-rule="evenodd" d="M422.855 1256.28C504.479 1294.16 591.566 1313.34 682.053 1313.34C766.232 1313.34 847.721 1296.64 924.66 1263.67L672.802 617.549L422.855 1256.28ZM682.053 1365C575.82 1365 473.899 1340.53 379.15 1292.25L358.312 1281.63L672.903 477.75L989.625 1290.34L967.942 1300.64C877.894 1343.34 781.707 1365 682.053 1365Z" fill="white"/>
</svg>
