<?xml version="1.0" encoding="UTF-8"?>
<svg xmlns="http://www.w3.org/2000/svg" version="1.1" viewBox="0 0 1147 391">
  <defs>
    <style>
      .cls-1 {
        fill: #1e1e1e;
      }
    </style>
  </defs>
  <!-- Generator: Adobe Illustrator 28.7.2, SVG Export Plug-In . SVG Version: 1.2.0 Build 154)  -->
  <g>
    <g id="Lager_1">
      <path class="cls-1" d="M343.2,28.3s-62.8-65.5-68.7,2.8c-6,68.3,68.8,108.6,68.8,108.6,0,0,81.2-40.7,78.2-100.9-3.6-71.4-68-20-78.3-10.5Z"/>
      <path class="cls-1" d="M303.1,164.3v224h82c0,0-.8-224-.8-224h-81.2Z"/>
      <path class="cls-1" d="M864.8,389.7c-22.6,0-40.6-10-53.8-29.9-13.2-20.1-19.8-46.4-19.8-79s7.6-67.6,22.9-87.6c15.4-20.2,32.6-30.3,51.5-30.3s35,8.7,46.4,26v-103.6h81v303h-71.6c0-.1-5.5-33.4-5.5-33.4-13.1,23.2-30.1,34.8-51.1,34.8ZM875.6,319.6c4.1,10.5,9.8,15.8,17,15.8s13.1-5.3,17-15.8c4.1-10.5,6.2-24,6.2-40.3s-2.1-30.2-6.2-41c-4-10.8-9.6-16.2-17-16.2s-12.9,5.4-17,16.2c-4,10.8-5.9,24.4-5.9,41s2,29.8,5.9,40.3Z"/>
      <path class="cls-1" d="M583.1,164.3v224h80l-.5-138.6c0-20.5,5.9-30.7,18-30.8,12.1-.1,17.3,10.5,17.4,31.5l.5,137.9h81.5l-.3-151.6c0-21.8-5.5-40-16.2-54.6-10.7-14.7-25.8-22-45.3-21.9-28,0-47.7,11.5-59.1,34.2l-5-30.1h-71Z"/>
      <path class="cls-1" d="M499.6,390.2c-29.4,0-54.3-9.5-74.7-28.8-20.3-19.3-30.5-48.3-30.6-86.9,0-34.7,8.7-62.4,26.4-83,17.7-20.8,40.5-31.3,68.4-31.4,27.2,0,48.6,10.8,64.1,32.8,15.7,21.9,22.3,51.3,20,88.2l-.8,11.3-102.1.3c2.8,15.1,8.6,26,17.3,32.7,8.8,6.7,18.8,10,30,9.9,15.4,0,32.3-4.3,50.6-12.7l.2,48.9c-17.7,12.3-40.6,18.6-68.6,18.7h-.2ZM491.9,215.3c-13.4,0-21.2,13.4-23.4,40h44.1c.2-13-1.5-22.8-5.2-29.6-3.6-7-8.7-10.4-15.4-10.4h-.1Z"/>
      <path class="cls-1" d="M159.1,388l-.7-223.7h71l6.6,39c9.7-28.3,25.5-41.2,47.2-41.3,3.7,0,7.2.7,10,2.2v81.7c-9-3.4-17.4-5.1-24.9-5.1s-17.5,4.2-22.3,12.4c-4.6,8.1-6.9,21.5-6.8,40.2l.3,94.9-80.3-.3h0Z"/>
      <path class="cls-1" d="M23.1,220.2l.6,168.1h80.4l-.6-169,46.6-.2v-54.8h-47v-4.1c0-8.3,2-14.5,5.9-18.7,3.9-4.1,8.7-6.2,14.3-6.2,10.1,0,19,2.3,26.8,7.1l-.2-47.7c-12.3-8.1-29.1-12.2-50.1-12.1-22.7,0-41.2,7.2-55.6,21.3-14.2,14-21.2,33.4-21.2,58.2v2.2H0l.2,55.9h22.9Z"/>
      <path class="cls-1" d="M1006.7,374.6v-54.4c19.9,11.7,62.8,30.5,63.1,3.9.2-21.5-38.3-31.5-58.9-63.8-8.5-13.2-9.7-32.6-5.3-49.6,9.5-36.7,45.4-46.7,61-49.3,24.3-4.1,55.4,0,71.1,10.7v54.2c-14.5-9.5-48.5-20.8-56.1-7.7-7.3,12.7,10.3,22.7,17.9,28.9,10.2,8,22.9,18.5,29.5,25.5,14.7,16.4,19.3,37.4,16.6,56.3-2.7,18.2-17.2,58.5-73.3,61-18.4.8-49.8-4.2-65.5-15.8h0Z"/>
    </g>
  </g>
</svg>