<?xml version="1.0" encoding="UTF-8"?>
<svg version="1.1" viewBox="0 0 54 27" xmlns="http://www.w3.org/2000/svg">
<title>ICA logo</title>
 <path d="m38.9 0 15.1 26.5h-7.65l-1.66-2.88h-7.61l2.66-4.67h2.29l-3.14-5.54-3.29 5.75c-0.517 0.9-1.04 1.69-1.55 2.37-2.51 3.31-6.58 5.43-11.1 5.43-7.58 0-13.8-6-13.8-13.4s6.17-13.4 13.8-13.4c2.59 0 4.92 0.684 6.95 1.83l-3.25 5.72a7.34 7.34 0 0 0-3.7-1.01c-3.88 0-7.02 3.06-7.02 6.83 0 3.78 3.14 6.83 7.02 6.83 2.11 0 3.84-0.863 5.1-2.12 0.555-0.539 1.18-1.44 1.37-1.76l9.46-16.6zm-38.9 26.5v-25.8h6.73v25.8h-6.73z" fill-rule="evenodd" style="fill:#e3000b" fill="#E3000B"/>
</svg>
